# xmcd CD database file
#
# Track frame offsets:
#	180
#	14285
#	32651
#	49535
#	65743
#	81936
#	97448
#	119347
#	134429
#	151379
#	170348
#	193095
#	213497
#	239951
#	253253
#	266430
#
# Disc length: 3755 seconds
#
# Revision: 0
# Processed by: cddbd v1.5PL3 Copyright (c) Steve Scherf et al.
# Submitted via: CDex 1.40Release
#
DISCID=f20ea910
DTITLE=Recycled Cajuns - Cajun Refaire
DYEAR=2004
DGENRE=Country
TTITLE0=Back Door
TTITLE1=Bosco Stomp
TTITLE2=Jolie Blond
TTITLE3=Rockin' Flames
TTITLE4=Zydeco Shoes
TTITLE5=Lacassine Special
TTITLE6=Toot-Toot
TTITLE7=Jambalaya
TTITLE8=Saturday Nite Special
TTITLE9=Sunshine
TTITLE10=Hey Good Lookin'
TTITLE11=Joe Pete
TTITLE12=Corn Bread
TTITLE13=Bayou Pom Pom
TTITLE14=Mathilda
TTITLE15=Let's Go to Lafayette
EXTD=YEAR: 2004 ID3G: 2
EXTT0=
EXTT1=
EXTT2=
EXTT3=
EXTT4=
EXTT5=
EXTT6=
EXTT7=
EXTT8=
EXTT9=
EXTT10=
EXTT11=
EXTT12=
EXTT13=
EXTT14=
EXTT15=
PLAYORDER=
